<svg width="148" height="40" viewBox="0 0 148 40" fill="none" xmlns="http://www.w3.org/2000/svg">
<rect width="148" height="40" rx="4.5" fill="#0A0B09"/>
<path d="M53.7445 14V7.60182H55.5486C56.105 7.60182 56.5973 7.72455 57.0255 7.97C57.4536 8.21545 57.7836 8.56591 58.0155 9.02136C58.25 9.47409 58.3686 9.995 58.3714 10.5841V10.9932C58.3714 11.5986 58.2541 12.1291 58.0195 12.5845C57.7877 13.0373 57.455 13.385 57.0214 13.6277C56.5905 13.8705 56.0873 13.9945 55.5118 14H53.7445ZM54.5873 8.29727V13.3086H55.475C56.1241 13.3086 56.63 13.1068 56.9927 12.7032C57.3555 12.2995 57.5368 11.7241 57.5368 10.9768V10.6045C57.5368 9.87636 57.365 9.31182 57.0214 8.91091C56.6805 8.50727 56.1964 8.30273 55.5691 8.29727H54.5873ZM59.3072 11.5782C59.3072 11.1118 59.3985 10.6932 59.5813 10.3223C59.764 9.94864 60.019 9.66091 60.3462 9.45909C60.6735 9.25727 61.0458 9.15636 61.4631 9.15636C62.1122 9.15636 62.6358 9.38136 63.034 9.83136C63.4349 10.2786 63.6353 10.8745 63.6353 11.6191V11.6764C63.6353 12.1373 63.5467 12.5518 63.3694 12.92C63.1922 13.2882 62.9385 13.5745 62.6085 13.7791C62.2785 13.9836 61.8994 14.0859 61.4712 14.0859C60.8276 14.0859 60.3053 13.8623 59.9044 13.415C59.5062 12.9677 59.3072 12.3745 59.3072 11.6355V11.5782ZM60.1253 11.6764C60.1253 12.2027 60.2467 12.6255 60.4894 12.9445C60.7349 13.2636 61.0622 13.4232 61.4712 13.4232C61.8858 13.4232 62.2144 13.2623 62.4572 12.9405C62.6999 12.6159 62.8213 12.1618 62.8213 11.5782C62.8213 11.0573 62.6972 10.6345 62.449 10.31C62.2035 9.98545 61.8749 9.82318 61.4631 9.82318C61.0622 9.82318 60.739 9.98409 60.4935 10.3059C60.2481 10.625 60.1253 11.0818 60.1253 11.6764ZM68.8622 12.8791L69.7786 9.24636H70.5927L69.2059 14H68.5472L67.3936 10.3959L66.2686 14H65.6059L64.2272 9.24636H65.0372L65.9741 12.8055L67.0786 9.24636H67.7332L68.8622 12.8791ZM72.1806 9.24636L72.2092 9.84364C72.5719 9.38545 73.0465 9.15636 73.6329 9.15636C74.6365 9.15636 75.1438 9.72364 75.1547 10.8582V14H74.3406V10.8541C74.3379 10.5105 74.2588 10.2568 74.1033 10.0932C73.9506 9.92955 73.7119 9.84773 73.3874 9.84773C73.1229 9.84773 72.891 9.91864 72.6919 10.0605C72.4929 10.1995 72.3374 10.3836 72.2256 10.6127V14H71.4115V9.24636H72.1806ZM77.2609 14H76.4509V7.25H77.2609V14ZM78.3531 11.5782C78.3531 11.1118 78.4444 10.6932 78.6271 10.3223C78.8099 9.94864 79.0649 9.66091 79.3921 9.45909C79.7194 9.25727 80.0917 9.15636 80.509 9.15636C81.1581 9.15636 81.6817 9.38136 82.0799 9.83136C82.4808 10.2786 82.6812 10.8745 82.6812 11.6191V11.6764C82.6812 12.1373 82.5926 12.5518 82.4153 12.92C82.2381 13.2882 81.9844 13.5745 81.6544 13.7791C81.3244 13.9836 80.9453 14.0859 80.5171 14.0859C79.8735 14.0859 79.3512 13.8623 78.9503 13.415C78.5521 12.9677 78.3531 12.3745 78.3531 11.6355V11.5782ZM79.1712 11.6764C79.1712 12.2027 79.2926 12.6255 79.5353 12.9445C79.7808 13.2636 80.1081 13.4232 80.5171 13.4232C80.9317 13.4232 81.2603 13.2623 81.5031 12.9405C81.7458 12.6159 81.8671 12.1618 81.8671 11.5782C81.8671 11.0573 81.7431 10.6345 81.4949 10.31C81.2494 9.98545 80.9208 9.82318 80.509 9.82318C80.1081 9.82318 79.7849 9.98409 79.5394 10.3059C79.294 10.625 79.1712 11.0818 79.1712 11.6764ZM86.6359 14C86.5895 13.9073 86.5513 13.7409 86.5213 13.5009C86.1422 13.8909 85.6909 14.0859 85.1672 14.0859C84.6981 14.0859 84.3136 13.9536 84.0136 13.6891C83.7136 13.4245 83.5636 13.0891 83.5636 12.6827C83.5636 12.1864 83.7518 11.8018 84.1281 11.5291C84.5045 11.2536 85.0336 11.1159 85.7154 11.1159H86.5091V10.7436C86.5091 10.46 86.4231 10.2336 86.2513 10.0645C86.0822 9.89545 85.8327 9.81091 85.5027 9.81091C85.2109 9.81091 84.9668 9.88455 84.7704 10.0318C84.5768 10.1791 84.48 10.3564 84.48 10.5636H83.6618C83.6618 10.3264 83.745 10.0973 83.9113 9.87636C84.0804 9.65545 84.3095 9.48091 84.5986 9.35273C84.8877 9.22182 85.2054 9.15636 85.5518 9.15636C86.1 9.15636 86.5281 9.29409 86.8363 9.56955C87.1472 9.84227 87.3095 10.2186 87.3231 10.6986V12.8873C87.3231 13.3236 87.3777 13.6714 87.4868 13.9305V14H86.6359ZM85.2859 13.3823C85.5422 13.3823 85.7836 13.3168 86.01 13.1859C86.2391 13.0523 86.4054 12.8805 86.5091 12.6705V11.6927H85.8709C84.8754 11.6927 84.3777 11.9845 84.3777 12.5682C84.3777 12.8218 84.4622 13.0209 84.6313 13.1655C84.8004 13.31 85.0186 13.3823 85.2859 13.3823ZM88.3977 11.5823C88.3977 10.8541 88.5709 10.2677 88.9173 9.82318C89.2637 9.37864 89.7164 9.15636 90.2755 9.15636C90.8318 9.15636 91.2723 9.34727 91.5968 9.72909V7.25H92.4109V14H91.6623L91.6255 13.4886C91.2982 13.8868 90.8455 14.0859 90.2673 14.0859C89.7164 14.0859 89.2664 13.8609 88.9173 13.4109C88.5709 12.9609 88.3977 12.3718 88.3977 11.6436V11.5823ZM89.2118 11.6764C89.2118 12.2136 89.3223 12.635 89.5432 12.9405C89.7668 13.2459 90.075 13.3986 90.4677 13.3986C90.9832 13.3986 91.3596 13.1668 91.5968 12.7032V10.5186C91.3541 10.0714 90.9805 9.84773 90.4759 9.84773C90.0777 9.84773 89.7668 10.0018 89.5432 10.31C89.3223 10.6155 89.2118 11.0709 89.2118 11.6764ZM96.3091 11.5782C96.3091 11.1118 96.4005 10.6932 96.5832 10.3223C96.7659 9.94864 97.0209 9.66091 97.3482 9.45909C97.6755 9.25727 98.0477 9.15636 98.465 9.15636C99.1141 9.15636 99.6377 9.38136 100.036 9.83136C100.437 10.2786 100.637 10.8745 100.637 11.6191V11.6764C100.637 12.1373 100.549 12.5518 100.371 12.92C100.194 13.2882 99.9405 13.5745 99.6105 13.7791C99.2805 13.9836 98.9014 14.0859 98.4732 14.0859C97.8296 14.0859 97.3073 13.8623 96.9064 13.415C96.5082 12.9677 96.3091 12.3745 96.3091 11.6355V11.5782ZM97.1273 11.6764C97.1273 12.2027 97.2487 12.6255 97.4914 12.9445C97.7368 13.2636 98.0641 13.4232 98.4732 13.4232C98.8877 13.4232 99.2164 13.2623 99.4591 12.9405C99.7018 12.6159 99.8232 12.1618 99.8232 11.5782C99.8232 11.0573 99.6991 10.6345 99.4509 10.31C99.2055 9.98545 98.8768 9.82318 98.465 9.82318C98.0641 9.82318 97.7409 9.98409 97.4955 10.3059C97.25 10.625 97.1273 11.0818 97.1273 11.6764ZM102.424 9.24636L102.452 9.84364C102.815 9.38545 103.29 9.15636 103.876 9.15636C104.88 9.15636 105.387 9.72364 105.398 10.8582V14H104.584V10.8541C104.581 10.5105 104.502 10.2568 104.346 10.0932C104.194 9.92955 103.955 9.84773 103.631 9.84773C103.366 9.84773 103.134 9.91864 102.935 10.0605C102.736 10.1995 102.581 10.3836 102.469 10.6127V14H101.655V9.24636H102.424ZM110.573 8.09273V9.24636H111.46V9.87227H110.573V12.8218C110.573 13.0127 110.612 13.1559 110.691 13.2514C110.77 13.3468 110.905 13.3945 111.096 13.3945C111.189 13.3945 111.317 13.3768 111.481 13.3414V14C111.268 14.0573 111.061 14.0859 110.859 14.0859C110.496 14.0859 110.222 13.9768 110.037 13.7586C109.851 13.5377 109.759 13.2255 109.759 12.8218V9.87227H108.895V9.24636H109.759V8.09273H110.573ZM113.227 9.81909C113.587 9.37727 114.056 9.15636 114.634 9.15636C115.637 9.15636 116.145 9.72364 116.156 10.8582V14H115.342V10.8541C115.339 10.5105 115.26 10.2568 115.104 10.0932C114.952 9.92955 114.713 9.84773 114.388 9.84773C114.124 9.84773 113.892 9.91864 113.693 10.0605C113.494 10.1995 113.338 10.3836 113.227 10.6127V14H112.412V7.25H113.227V9.81909ZM119.345 14.0859C118.699 14.0859 118.174 13.8745 117.77 13.4518C117.367 13.0291 117.165 12.4632 117.165 11.7541V11.6068C117.165 11.135 117.255 10.7136 117.435 10.3427C117.615 9.97182 117.866 9.68136 118.188 9.47136C118.512 9.26136 118.864 9.15636 119.243 9.15636C119.862 9.15636 120.342 9.36091 120.683 9.77C121.027 10.1764 121.199 10.7586 121.199 11.5168V11.8564H117.979C117.99 12.3255 118.126 12.7045 118.388 12.9936C118.65 13.28 118.983 13.4232 119.386 13.4232C119.675 13.4232 119.919 13.3645 120.119 13.2473C120.318 13.13 120.492 12.9745 120.642 12.7809L121.137 13.1695C120.739 13.7805 120.142 14.0859 119.345 14.0859ZM119.243 9.82318C118.916 9.82318 118.64 9.94318 118.417 10.1832C118.193 10.4232 118.055 10.7573 118.004 11.1855H120.384V11.1241C120.363 10.7123 120.252 10.3932 120.053 10.1668C119.854 9.93773 119.584 9.82318 119.243 9.82318Z" fill="white"/>
<path d="M60.238 27.452H56.003L55.114 30H53.133L57.27 19.052H58.978L63.122 30H61.134L60.238 27.452ZM56.535 25.919H59.706L58.124 21.376L56.535 25.919ZM71.3056 26.017C71.3056 27.2723 71.0186 28.2757 70.4446 29.027C69.8753 29.7737 69.1076 30.147 68.1416 30.147C67.2503 30.147 66.5363 29.8553 65.9996 29.272V33.129H64.1726V21.866H65.8596L65.9366 22.692C66.4733 22.0387 67.2013 21.712 68.1206 21.712C69.1146 21.712 69.8939 22.083 70.4586 22.825C71.0233 23.5623 71.3056 24.589 71.3056 25.905V26.017ZM69.4856 25.856C69.4856 25.044 69.3223 24.4 68.9956 23.924C68.6736 23.448 68.2116 23.21 67.6096 23.21C66.8629 23.21 66.3263 23.518 65.9996 24.134V27.746C66.3309 28.376 66.8723 28.691 67.6236 28.691C68.2069 28.691 68.6619 28.4577 68.9886 27.991C69.3199 27.5197 69.4856 26.808 69.4856 25.856ZM79.9831 26.017C79.9831 27.2723 79.6961 28.2757 79.1221 29.027C78.5528 29.7737 77.7851 30.147 76.8191 30.147C75.9278 30.147 75.2138 29.8553 74.6771 29.272V33.129H72.8501V21.866H74.5371L74.6141 22.692C75.1508 22.0387 75.8788 21.712 76.7981 21.712C77.7921 21.712 78.5715 22.083 79.1361 22.825C79.7008 23.5623 79.9831 24.589 79.9831 25.905V26.017ZM78.1631 25.856C78.1631 25.044 77.9998 24.4 77.6731 23.924C77.3511 23.448 76.8891 23.21 76.2871 23.21C75.5405 23.21 75.0038 23.518 74.6771 24.134V27.746C75.0085 28.376 75.5498 28.691 76.3011 28.691C76.8845 28.691 77.3395 28.4577 77.6661 27.991C77.9975 27.5197 78.1631 26.808 78.1631 25.856ZM92.3013 27.179C92.3013 26.6983 92.131 26.3273 91.7903 26.066C91.4543 25.8047 90.8453 25.541 89.9633 25.275C89.0813 25.009 88.3813 24.715 87.8633 24.393C86.8647 23.763 86.3653 22.944 86.3653 21.936C86.3653 21.054 86.7247 20.3283 87.4433 19.759C88.162 19.185 89.0953 18.898 90.2433 18.898C91.004 18.898 91.683 19.0403 92.2803 19.325C92.8777 19.605 93.3467 20.004 93.6873 20.522C94.028 21.04 94.1983 21.614 94.1983 22.244H92.3013C92.3013 21.6747 92.1217 21.229 91.7623 20.907C91.4077 20.5803 90.8967 20.417 90.2293 20.417C89.6087 20.417 89.1257 20.55 88.7803 20.816C88.4397 21.082 88.2693 21.453 88.2693 21.929C88.2693 22.3303 88.4537 22.6663 88.8223 22.937C89.1957 23.203 89.807 23.4643 90.6563 23.721C91.5103 23.973 92.194 24.26 92.7073 24.582C93.2253 24.904 93.6033 25.275 93.8413 25.695C94.084 26.115 94.2053 26.605 94.2053 27.165C94.2053 28.0797 93.8553 28.8053 93.1553 29.342C92.46 29.8787 91.5127 30.147 90.3133 30.147C89.52 30.147 88.7897 30.0023 88.1223 29.713C87.4597 29.419 86.944 29.0153 86.5753 28.502C86.2067 27.984 86.0223 27.3797 86.0223 26.689H87.9263C87.9263 27.3143 88.1317 27.7973 88.5423 28.138C88.953 28.4787 89.5433 28.649 90.3133 28.649C90.976 28.649 91.473 28.516 91.8043 28.25C92.1357 27.9793 92.3013 27.6223 92.3013 27.179ZM97.9905 19.885V21.866H99.4255V23.217H97.9905V27.76C97.9905 28.068 98.0511 28.292 98.1725 28.432C98.2938 28.572 98.5131 28.642 98.8305 28.642C99.0405 28.642 99.2528 28.6163 99.4675 28.565V29.979C99.0521 30.091 98.6531 30.147 98.2705 30.147C96.8658 30.147 96.1635 29.3747 96.1635 27.83V23.217H94.8265V21.866H96.1635V19.885H97.9905ZM100.487 25.856C100.487 25.058 100.643 24.3393 100.956 23.7C101.273 23.0607 101.716 22.5707 102.286 22.23C102.86 21.8847 103.518 21.712 104.26 21.712C105.356 21.712 106.248 22.0667 106.934 22.776C107.62 23.4807 107.988 24.4163 108.04 25.583L108.054 26.017C108.054 26.8197 107.897 27.536 107.585 28.166C107.277 28.796 106.836 29.2837 106.262 29.629C105.688 29.9743 105.025 30.147 104.274 30.147C103.126 30.147 102.206 29.7667 101.516 29.006C100.83 28.2407 100.487 27.221 100.487 25.947V25.856ZM102.314 26.017C102.314 26.8523 102.486 27.508 102.832 27.984C103.177 28.4553 103.658 28.691 104.274 28.691C104.89 28.691 105.37 28.4507 105.716 27.97C106.061 27.4893 106.234 26.7847 106.234 25.856C106.234 25.0347 106.056 24.3837 105.702 23.903C105.347 23.4223 104.866 23.182 104.26 23.182C103.662 23.182 103.189 23.42 102.839 23.896C102.489 24.3673 102.314 25.0743 102.314 26.017ZM113.854 23.532C113.616 23.4947 113.368 23.476 113.112 23.476C112.276 23.476 111.712 23.7957 111.418 24.435V30H109.591V21.866H111.334L111.383 22.776C111.821 22.0667 112.433 21.712 113.217 21.712C113.478 21.712 113.693 21.747 113.861 21.817L113.854 23.532ZM118.596 30.147C117.434 30.147 116.493 29.783 115.775 29.055C115.056 28.327 114.697 27.3563 114.697 26.143V25.919C114.697 25.107 114.853 24.3813 115.166 23.742C115.478 23.1027 115.917 22.6057 116.482 22.251C117.051 21.8917 117.686 21.712 118.386 21.712C119.492 21.712 120.346 22.0667 120.948 22.776C121.554 23.4807 121.858 24.4793 121.858 25.772V26.514H116.538C116.594 27.186 116.818 27.718 117.21 28.11C117.606 28.4973 118.103 28.691 118.701 28.691C119.536 28.691 120.217 28.3527 120.745 27.676L121.732 28.614C121.405 29.104 120.969 29.482 120.423 29.748C119.881 30.014 119.272 30.147 118.596 30.147ZM118.372 23.182C117.872 23.182 117.469 23.357 117.161 23.707C116.853 24.057 116.657 24.5447 116.573 25.17H120.052V25.037C120.01 24.4257 119.846 23.9637 119.562 23.651C119.277 23.3383 118.88 23.182 118.372 23.182Z" fill="white"/>
<g clip-path="url(#clip0_2304_972)">
<path d="M26.4323 32C26.135 32 25.8377 32 25.6891 32C24.7972 31.7033 24.2026 31.2582 23.608 30.6648C22.5675 29.478 21.6756 28.1428 20.9323 26.8077C20.0404 25.0275 19.4458 23.2472 19.2972 21.3187C18.9999 19.9835 18.9999 18.5 19.2972 17.1648C19.7431 15.0879 20.9323 13.456 22.7161 12.4176C23.9053 11.6758 25.2431 11.3791 26.7296 11.8242C27.4729 11.9725 28.3648 12.2692 29.108 12.5659C29.8512 12.8626 30.4458 12.8626 31.1891 12.5659C31.635 12.4176 32.081 12.2692 32.5269 11.9725C33.7161 11.5275 34.9053 11.3791 36.2431 11.6758C37.8783 11.9725 39.2161 12.7143 40.108 14.0494C40.2566 14.1978 40.2566 14.3461 40.108 14.3461C39.5134 14.7912 38.9188 15.2363 38.4729 15.8297C36.9864 17.7582 36.9864 19.9835 38.0269 22.0604C38.6215 23.2472 39.5134 24.1374 40.7026 24.7308C40.9999 24.8791 40.9999 25.0275 40.8512 25.1758C40.108 27.2527 39.0675 29.033 37.581 30.6648C36.5404 31.8516 35.3512 32.2967 33.8648 31.8516C33.4188 31.7033 32.9729 31.4066 32.3783 31.2582C31.1891 30.8132 30.1485 30.8132 28.9594 31.1099C28.2161 31.4066 27.3242 31.8516 26.4323 32Z" fill="white"/>
<path d="M35.5 5.74176C35.2027 7.96703 34.1622 9.74725 32.0811 10.9341C31.4865 11.2308 30.7432 11.2308 30.1486 11.2308C30 11.2308 30 11.0824 30 10.9341C30 9.5989 30.4459 8.41209 31.1892 7.22527C32.2297 6.03846 33.5676 5.2967 35.2027 5C35.3514 5 35.5 5 35.5 5.2967C35.3514 5.44505 35.5 5.59341 35.5 5.74176Z" fill="white"/>
</g>
<defs>
<clipPath id="clip0_2304_972">
<rect width="22" height="27" fill="white" transform="translate(19 5)"/>
</clipPath>
</defs>
</svg>
