<svg width="147" height="40" viewBox="0 0 147 40" fill="none" xmlns="http://www.w3.org/2000/svg">
<path d="M141.63 0H4.53943C2.03237 0 0 1.90517 0 4.25532V35.7447C0 38.0948 2.03237 40 4.53943 40H141.63C144.137 40 146.17 38.0948 146.17 35.7447V4.25532C146.17 1.90517 144.137 0 141.63 0Z" fill="#0A0B09"/>
<path d="M79.6892 16.9464C78.9435 16.9501 78.2156 17.1608 77.5974 17.5519C76.9793 17.943 76.4985 18.4969 76.2159 19.1438C75.9332 19.7908 75.8613 20.5017 76.0092 21.1869C76.1571 21.8721 76.5182 22.5009 77.0469 22.9939C77.5757 23.487 78.2483 23.8221 78.9801 23.9572C79.7118 24.0922 80.4698 24.021 81.1584 23.7527C81.847 23.4843 82.4354 23.0307 82.8494 22.4492C83.2633 21.8677 83.4842 21.1842 83.4842 20.4851C83.4911 20.017 83.3975 19.5524 83.209 19.1189C83.0205 18.6854 82.7409 18.2919 82.3868 17.9618C82.0328 17.6316 81.6115 17.3716 81.1481 17.1972C80.6847 17.0227 80.1885 16.9375 79.6892 16.9464ZM79.6892 22.6536C79.2297 22.6842 78.7709 22.5844 78.3728 22.3671C77.9746 22.1498 77.6555 21.8251 77.4571 21.4353C77.2586 21.0455 77.19 20.6088 77.2602 20.1819C77.3303 19.7551 77.536 19.3579 77.8504 19.0422C78.1648 18.7265 78.5733 18.5069 79.0228 18.412C79.4723 18.3171 79.9418 18.3513 80.3702 18.5102C80.7987 18.669 81.1661 18.9451 81.4247 19.3026C81.6833 19.66 81.8211 20.0822 81.8201 20.5141C81.8294 20.7841 81.7815 21.0533 81.6792 21.3059C81.5769 21.5585 81.4222 21.7896 81.2241 21.9859C81.026 22.1821 80.7883 22.3396 80.5249 22.4493C80.2614 22.5589 79.9774 22.6185 79.6892 22.6247V22.6536ZM71.4302 16.9464C70.6844 16.9501 69.9566 17.1608 69.3384 17.5519C68.7202 17.943 68.2395 18.4969 67.9568 19.1438C67.6742 19.7908 67.6023 20.5017 67.7502 21.1869C67.8981 21.8721 68.2592 22.5009 68.7879 22.9939C69.3166 23.487 69.9893 23.8221 70.721 23.9572C71.4528 24.0922 72.2108 24.021 72.8994 23.7527C73.588 23.4843 74.1764 23.0307 74.5903 22.4492C75.0043 21.8677 75.2252 21.1842 75.2252 20.4851C75.2321 20.017 75.1385 19.5524 74.95 19.1189C74.7614 18.6854 74.4818 18.2919 74.1278 17.9618C73.7737 17.6316 73.3525 17.3716 72.889 17.1972C72.4256 17.0227 71.9295 16.9375 71.4302 16.9464ZM71.4302 22.6536C70.9706 22.6842 70.5119 22.5844 70.1137 22.3671C69.7156 22.1498 69.3965 21.8251 69.198 21.4353C68.9996 21.0455 68.931 20.6088 69.0011 20.1819C69.0713 19.7551 69.277 19.3579 69.5914 19.0422C69.9058 18.7265 70.3143 18.5069 70.7638 18.412C71.2132 18.3171 71.6828 18.3513 72.1112 18.5102C72.5396 18.669 72.9071 18.9451 73.1657 19.3026C73.4243 19.66 73.562 20.0822 73.561 20.5141C73.5703 20.7841 73.5225 21.0533 73.4202 21.3059C73.3179 21.5585 73.1632 21.7896 72.9651 21.9859C72.7669 22.1821 72.5293 22.3396 72.2658 22.4493C72.0024 22.5589 71.7184 22.6185 71.4302 22.6247V22.6536ZM61.6069 18.0307V19.5336H65.4327C65.3884 20.244 65.08 20.9173 64.5611 21.4366C64.1796 21.8053 63.7193 22.0941 63.2103 22.2842C62.7013 22.4743 62.1552 22.5613 61.6078 22.5396C60.5145 22.4899 59.4836 22.0479 58.7286 21.305C57.9736 20.5621 57.5524 19.5754 57.5524 18.5494C57.5524 17.5233 57.9736 16.5366 58.7286 15.7938C59.4836 15.0509 60.5145 14.6088 61.6078 14.5592C62.6808 14.5432 63.717 14.9263 64.4894 15.6247L65.6261 14.5694C65.0919 14.0756 64.4575 13.6873 63.7605 13.4274C63.0634 13.1675 62.3179 13.0413 61.5678 13.0562C60.778 13.0256 59.9896 13.1451 59.2502 13.4073C58.5108 13.6696 57.8356 14.0693 57.2652 14.5824C56.6948 15.0955 56.2409 15.7114 55.9308 16.3932C55.6208 17.0749 55.4609 17.8083 55.4609 18.5494C55.4609 19.2905 55.6208 20.0239 55.9308 20.7056C56.2409 21.3873 56.6948 22.0032 57.2652 22.5164C57.8356 23.0295 58.5108 23.4292 59.2502 23.6914C59.9896 23.9537 60.778 24.0732 61.5678 24.0426C62.3216 24.0664 63.0723 23.9415 63.7714 23.6762C64.4705 23.4108 65.1023 23.0109 65.6261 22.5022C66.5559 21.5449 67.0509 20.2855 67.0061 18.9915C67.0136 18.6728 66.9862 18.3543 66.9244 18.0409L61.6078 18.0307H61.6069ZM101.79 19.2009C101.563 18.5603 101.133 18.0005 100.555 17.5973C99.9782 17.194 99.2828 16.9668 98.5633 16.9464C98.0783 16.9496 97.5991 17.0448 97.1544 17.2264C96.7098 17.4079 96.309 17.672 95.9762 18.0026C95.6433 18.3333 95.3854 18.7238 95.2179 19.1504C95.0504 19.5771 94.9769 20.0311 95.0016 20.4851C94.9906 20.9502 95.0797 21.4126 95.2636 21.8447C95.4474 22.2768 95.7223 22.6698 96.0718 23.0001C96.4212 23.3304 96.8381 23.5913 97.2976 23.7672C97.757 23.9431 98.2495 24.0304 98.7458 24.0239C99.3675 24.0261 99.9801 23.8839 100.529 23.6101C101.078 23.3362 101.545 22.9392 101.891 22.4545L100.602 21.646C100.406 21.9409 100.133 22.1834 99.8073 22.35C99.482 22.5165 99.1164 22.6015 98.7458 22.5966C98.3614 22.6099 97.9817 22.5144 97.6559 22.3227C97.3302 22.1311 97.0734 21.852 96.9191 21.5217L101.992 19.5728L101.79 19.2009ZM96.6449 20.3805C96.6213 20.1213 96.6546 19.8604 96.7428 19.6137C96.8309 19.3671 96.9722 19.1401 97.1576 18.9467C97.3431 18.7533 97.569 18.5975 97.8212 18.4892C98.0734 18.3808 98.3467 18.3221 98.6241 18.3166C98.9104 18.2993 99.1958 18.3613 99.4447 18.4949C99.6936 18.6286 99.8951 18.8279 100.024 19.0681L96.6449 20.3805ZM92.5867 23.8051H94.1791V13.4085H92.5449L92.5867 23.8051ZM89.8766 17.7362H89.8158C89.5593 17.4741 89.2448 17.2676 88.8943 17.1312C88.5438 16.9948 88.1658 16.9317 87.7867 16.9464C86.7855 16.9464 85.8253 17.3192 85.1174 17.9829C84.4094 18.6465 84.0117 19.5466 84.0117 20.4851C84.0117 21.4237 84.4094 22.3237 85.1174 22.9874C85.8253 23.651 86.7855 24.0239 87.7867 24.0239C88.1675 24.0375 88.5469 23.9721 88.8977 23.8323C89.2485 23.6926 89.562 23.4819 89.8158 23.2153H89.8766V23.7285C89.9196 23.9954 89.8983 24.2679 89.8143 24.5261C89.7303 24.7842 89.5857 25.0215 89.3911 25.2204C89.1965 25.4193 88.9568 25.5748 88.6897 25.6756C88.4226 25.7763 88.1348 25.8197 87.8475 25.8026C87.4309 25.7998 87.0253 25.6768 86.6858 25.4504C86.3463 25.224 86.0894 24.9051 85.95 24.537L84.5092 25.1073C84.7804 25.7272 85.2431 26.257 85.838 26.6284C86.4329 26.9998 87.1328 27.1959 87.8475 27.1915C89.7958 27.1915 91.44 26.126 91.44 23.5098V17.1464H89.8367L89.8766 17.7362ZM87.9701 22.6256C87.3906 22.588 86.8478 22.3458 86.4515 21.9477C86.0552 21.5496 85.8347 21.0254 85.8347 20.4809C85.8347 19.9364 86.0552 19.4121 86.4515 19.014C86.8478 18.616 87.3906 18.3737 87.9701 18.3362C88.2563 18.3481 88.537 18.414 88.7954 18.53C89.0538 18.6459 89.2846 18.8095 89.4741 19.011C89.6635 19.2125 89.8076 19.4477 89.8979 19.7026C89.9881 19.9575 90.0225 20.2268 89.9992 20.4945C90.0229 20.764 89.9871 21.0351 89.8942 21.2911C89.8012 21.547 89.653 21.7823 89.4588 21.9822C89.2646 22.1821 89.0286 22.3424 88.7654 22.4531C88.5023 22.5638 88.2176 22.6225 87.9292 22.6256H87.9692H87.9701ZM109.603 13.4085H105.636V23.8043H107.289V19.8664H109.603C110.071 19.8889 110.538 19.822 110.977 19.6699C111.416 19.5177 111.817 19.2835 112.156 18.9813C112.495 18.6792 112.766 18.3155 112.95 17.9125C113.135 17.5094 113.23 17.0753 113.23 16.6366C113.23 16.198 113.135 15.7639 112.95 15.3608C112.766 14.9577 112.495 14.594 112.156 14.2919C111.817 13.9898 111.416 13.7555 110.977 13.6034C110.538 13.4512 110.071 13.3843 109.603 13.4068V13.4085ZM109.603 18.4213H107.249V14.8545H109.603C109.865 14.8359 110.128 14.8682 110.376 14.9494C110.624 15.0306 110.851 15.1588 111.044 15.3262C111.237 15.4936 111.39 15.6965 111.495 15.9221C111.6 16.1477 111.655 16.3913 111.655 16.6375C111.655 16.8837 111.6 17.1272 111.495 17.3528C111.39 17.5785 111.237 17.7813 111.044 17.9487C110.851 18.1161 110.624 18.2444 110.376 18.3256C110.128 18.4067 109.865 18.439 109.603 18.4204V18.4213ZM119.83 16.9277C119.227 16.8941 118.626 17.0266 118.101 17.3087C117.577 17.5908 117.152 18.0103 116.878 18.5158L118.349 19.0962C118.642 18.5787 119.239 18.2792 119.861 18.3353C120.069 18.3157 120.278 18.3346 120.477 18.391C120.677 18.4473 120.863 18.54 121.024 18.6638C121.185 18.7875 121.318 18.9398 121.417 19.112C121.515 19.2842 121.576 19.4729 121.596 19.6673V19.7719C121.064 19.5115 120.472 19.3743 119.871 19.3719C118.289 19.3719 116.676 20.1907 116.676 21.7124C116.691 22.0335 116.775 22.3485 116.923 22.6387C117.07 22.9289 117.278 23.1885 117.534 23.4021C117.79 23.6157 118.09 23.7791 118.414 23.8825C118.739 23.9859 119.083 24.0273 119.425 24.0043C120.287 24.0639 121.114 23.6724 121.576 22.9864V23.8051H123.169V19.8C123.19 17.9549 121.728 16.9277 119.83 16.9277ZM119.628 22.6349C119.091 22.6349 118.33 22.3779 118.33 21.7498C118.33 20.9515 119.273 20.6375 120.085 20.6375C120.603 20.6176 121.117 20.7259 121.576 20.9515C121.518 21.4027 121.29 21.8196 120.933 22.1267C120.575 22.4337 120.113 22.6107 119.628 22.6256V22.6341V22.6349ZM129.014 17.1464L127.116 21.6553H127.055L125.087 17.1464H123.311L126.264 23.4434L124.621 26.9532H126.345L130.85 17.1464H129.014ZM114.108 23.8051H115.762V13.4085H114.108V23.8043V23.8051Z" fill="white"/>
<path d="M24.6138 8.14805C24.2791 8.51861 24.1082 8.99513 24.1362 9.47996V30.5191C24.1017 31.0042 24.2724 31.4834 24.6128 31.851L24.6846 31.9276L37.2561 20.1421V19.8561L24.6846 8.08167L24.6128 8.14805H24.6138Z" fill="url(#paint0_linear_2164_3252)"/>
<path d="M41.4167 24.0715L37.2559 20.143V19.857L41.4167 15.9285L41.5075 15.9864L46.49 18.6307C47.9108 19.3821 47.9108 20.6179 46.49 21.3796L41.5284 24.0238L41.4167 24.0715Z" fill="url(#paint1_linear_2164_3252)"/>
<path d="M41.5381 24.0136L37.2556 20L24.6133 31.8519C24.9 32.0913 25.2671 32.229 25.6509 32.2411C26.0347 32.2533 26.4108 32.139 26.7141 31.9183L41.539 24.0136" fill="url(#paint2_linear_2164_3252)"/>
<path d="M41.538 15.9864L26.7122 8.0911C26.4109 7.8677 26.0352 7.75096 25.6512 7.76138C25.2672 7.77181 24.8993 7.90874 24.6123 8.14812L37.2555 20L41.538 15.9864Z" fill="url(#paint3_linear_2164_3252)"/>
<path opacity="0.2" d="M41.4164 23.9286L26.7132 31.7754C26.1121 32.2009 25.2841 32.2009 24.684 31.7754L24.6123 31.8426L24.684 31.9192C25.2841 32.343 26.1121 32.343 26.7132 31.9192L41.538 24.0137L41.4164 23.9286Z" fill="black"/>
<path opacity="0.12" d="M24.6117 31.7191C24.2856 31.3419 24.1258 30.862 24.165 30.3778V30.52C24.1305 31.0051 24.3012 31.4842 24.6416 31.8519L24.7125 31.7855L24.6108 31.7183L24.6117 31.7191ZM46.4881 21.2366L41.4148 23.9285L41.5056 24.0136L46.4881 21.3693C46.782 21.2527 47.0369 21.064 47.2261 20.823C47.4153 20.582 47.5317 20.2977 47.563 20C47.4996 20.2707 47.3691 20.5236 47.1823 20.7384C46.9954 20.9532 46.7573 21.1238 46.4872 21.2366H46.4881Z" fill="black"/>
<path opacity="0.25" d="M26.7113 8.22467L46.4878 18.7634C46.7577 18.8762 46.9956 19.0469 47.1823 19.2617C47.369 19.4765 47.4993 19.7294 47.5627 20C47.5314 19.702 47.4149 19.4175 47.2256 19.1763C47.0363 18.9352 46.781 18.7464 46.4868 18.6298L26.7113 8.09191C25.3004 7.33106 24.1338 7.95914 24.1338 9.48084V9.62297C24.1647 8.10127 25.3004 7.47404 26.7113 8.22553V8.22467Z" fill="white"/>
<path d="M94.4235 34.3532C94.1974 34.3587 93.9726 34.3199 93.7635 34.2392C93.5737 34.1594 93.4041 34.0428 93.266 33.897C92.6864 34.2009 92.0325 34.3581 91.3685 34.3532C91.0731 34.3695 90.7777 34.3208 90.506 34.2111C90.4215 34.1761 90.3496 34.1189 90.2992 34.0464C90.2488 33.9738 90.2219 33.8891 90.2218 33.8026C90.2118 33.6331 90.2701 33.4663 90.3852 33.3353C90.5441 33.4562 90.7266 33.5464 90.9227 33.6017C91.1633 33.6647 91.413 33.6936 91.6635 33.6868C92.103 33.6783 92.5396 33.6145 92.9618 33.497C92.7205 33.1158 92.5169 32.7147 92.3535 32.2987C92.2388 32.0149 92.1702 31.7165 92.1502 31.4136C92.1476 31.2777 92.1959 31.1452 92.2869 31.0393C92.3778 30.9334 92.5055 30.8607 92.6477 30.834C92.7793 31.2715 92.891 31.6426 92.9927 31.9472C93.0935 32.2511 93.1951 32.4894 93.2868 32.6792C93.3813 32.8638 93.4893 33.0417 93.611 33.2119C93.7135 33.3583 93.8488 33.4817 94.0068 33.5736C94.1502 33.6366 94.3064 33.6689 94.4635 33.6689C94.5143 33.6689 94.5452 33.6689 94.5452 33.7353V34.2681C94.5452 34.2681 94.4734 34.3532 94.4235 34.3532Z" fill="white" stroke="white" stroke-width="0.2"/>
<path d="M96.971 32.366C97.0545 32.3632 97.1366 32.3865 97.2044 32.4323C97.0927 32.6885 96.991 32.8979 96.9002 33.0689C96.8576 33.1711 96.8067 33.2698 96.7477 33.3643C96.9293 33.4749 97.1281 33.5617 97.336 33.6213C97.5312 33.6723 97.7328 33.6979 97.9352 33.6979C97.9352 33.6979 98.006 33.6979 98.006 33.7634V34.2681C98.006 34.2681 98.006 34.3345 97.9352 34.3345C97.3888 34.3442 96.8578 34.1648 96.4436 33.8306L96.291 34.0111C96.0859 34.1328 95.8525 34.2068 95.611 34.2298C95.2333 34.2979 94.8493 34.3319 94.4644 34.3345C94.4644 34.3345 94.3936 34.3345 94.3936 34.2681V33.7353C94.3936 33.6877 94.3936 33.6689 94.4644 33.6689C94.8021 33.686 95.1417 33.686 95.4794 33.6689C95.6791 33.6587 95.8743 33.6026 96.0477 33.5072C96.2547 33.3038 96.4227 33.0689 96.5443 32.8128L96.7078 32.5268C96.7308 32.4793 96.7678 32.4388 96.8144 32.4102C96.861 32.3815 96.9153 32.3659 96.971 32.3651V32.366ZM96.1385 35.4757C95.9738 35.6948 95.7871 35.8985 95.5811 36.0843C95.3595 35.9195 95.1524 35.7382 94.9619 35.5421C95.1244 35.4 95.3269 35.2 95.5611 34.9523L96.1385 35.4757ZM97.5494 35.3523C97.3923 35.5745 97.2044 35.7762 96.991 35.9515C96.765 35.795 96.5575 35.6164 96.3718 35.4187C96.5044 35.2953 96.7078 35.0953 96.971 34.8196L97.5494 35.3523Z" fill="white" stroke="white" stroke-width="0.2"/>
<path d="M98.0456 34.3532C98.0456 34.3532 97.9639 34.3532 97.9639 34.2868V33.7541C97.9639 33.7064 97.9639 33.6877 98.0456 33.6877C98.2435 33.6928 98.4423 33.6707 98.6339 33.6213C98.7773 33.5945 98.9103 33.5318 99.0188 33.44C99.1986 33.2426 99.3457 33.0221 99.4555 32.7847L99.628 32.4987C99.6554 32.4516 99.6969 32.4129 99.7473 32.3875C99.7978 32.3621 99.8551 32.3511 99.9122 32.3558C99.9957 32.353 100.078 32.3763 100.146 32.4221C100.011 32.7464 99.8586 33.0638 99.6889 33.3736C99.8722 33.4834 100.07 33.5694 100.277 33.6307C100.469 33.6817 100.668 33.7072 100.866 33.7072C100.866 33.7072 100.947 33.7072 100.947 33.7736V34.2673C100.947 34.2673 100.947 34.3345 100.865 34.3345C100.32 34.3463 99.7904 34.1624 99.3847 33.8204L99.2322 34.0111C99.1078 34.1217 98.9535 34.1975 98.7855 34.2298C98.5477 34.3086 98.2978 34.3503 98.0456 34.3532ZM100.075 31.1958C99.8974 31.4287 99.6967 31.6453 99.4755 31.8426C99.2346 31.6683 99.0076 31.4777 98.7964 31.2724C99.1205 30.9668 99.3339 30.7481 99.4555 30.6255C99.608 30.8247 99.8205 31.0145 100.034 31.1958H100.075Z" fill="white" stroke="white" stroke-width="0.2"/>
<path d="M100.917 34.3532C100.856 34.3532 100.836 34.3532 100.836 34.2868V33.7541C100.836 33.7064 100.836 33.6877 100.918 33.6877C101.297 33.6919 101.677 33.6698 102.053 33.6213C102.342 33.5881 102.627 33.5345 102.907 33.4596C103.172 33.3872 103.431 33.2919 103.677 33.1736C103.555 32.8104 103.335 32.4829 103.038 32.223C102.642 31.8944 102.198 31.622 101.718 31.4145C101.641 31.4244 101.562 31.4244 101.485 31.4145C101.409 31.4179 101.333 31.4051 101.262 31.3771C101.192 31.3491 101.13 31.3066 101.079 31.2528C101.023 31.1989 100.98 31.1348 100.952 31.0645C100.924 30.9942 100.912 30.9192 100.917 30.8443C100.926 30.6724 100.956 30.5038 101.008 30.3396C101.079 30.1302 101.13 30.0162 101.161 30.0068C101.993 29.5983 102.632 29.303 103.078 29.1132C103.547 28.9122 104.021 28.7216 104.499 28.5413C104.547 28.584 104.585 28.6359 104.609 28.6935C104.634 28.7511 104.644 28.813 104.641 28.8749V28.9515C104.625 29.0514 104.581 29.1455 104.514 29.224C104.446 29.3025 104.357 29.3624 104.256 29.3975C102.967 29.8928 101.973 30.349 101.212 30.606C101.695 30.7149 102.158 30.8945 102.581 31.1387C102.968 31.3653 103.311 31.6513 103.596 31.9847C103.829 32.2255 103.965 32.5353 103.982 32.8604C104.003 33.0902 103.95 33.3205 103.831 33.5221C103.711 33.7237 103.531 33.8874 103.312 33.9924C102.551 34.2755 101.734 34.3987 100.917 34.3532ZM114.636 34.3532C114.337 34.3601 114.041 34.3087 113.765 34.2023C113.489 34.096 113.239 33.9369 113.032 33.7353C112.59 33.946 112.119 34.0995 111.633 34.1915C111.038 34.306 110.432 34.3602 109.826 34.3532C109.231 34.3885 108.639 34.2595 108.122 33.9821C107.928 33.859 107.773 33.6908 107.669 33.4942C107.566 33.2975 107.519 33.0792 107.533 32.8604C107.53 32.5397 107.571 32.2199 107.655 31.909H107.989V32.3464C107.971 32.6238 108.046 32.8996 108.203 33.1362C108.368 33.337 108.595 33.486 108.852 33.5643C109.241 33.6698 109.645 33.7175 110.05 33.7064C110.612 33.7015 111.172 33.6473 111.723 33.5447C112.115 33.4936 112.495 33.3838 112.85 33.2213C112.914 33.1753 112.973 33.1209 113.022 33.0596C113.085 32.9925 113.14 32.9192 113.185 32.8409L113.317 32.6128C113.346 32.5648 113.389 32.5258 113.441 32.5004C113.493 32.4751 113.552 32.4644 113.611 32.4698C113.691 32.4698 113.769 32.4936 113.834 32.537C113.726 32.8034 113.601 33.0647 113.459 33.3166C113.643 33.4375 113.844 33.5336 114.057 33.6017C114.261 33.6613 114.473 33.6902 114.687 33.6868C114.687 33.6868 114.768 33.6868 114.768 33.7549V34.2681C114.768 34.2681 114.687 34.3532 114.636 34.3532ZM110.516 31.0715C110.359 31.2928 110.174 31.497 109.968 31.6809C109.744 31.5157 109.534 31.3344 109.339 31.1387C109.502 30.9958 109.704 30.7958 109.947 30.549L110.516 31.0715ZM111.937 30.9481C111.779 31.1719 111.587 31.3736 111.368 31.5472C111.141 31.3882 110.934 31.2064 110.749 31.0051C110.821 30.9481 111.023 30.7583 111.358 30.4153C111.429 30.463 111.622 30.6724 111.937 30.9481Z" fill="white" stroke="white" stroke-width="0.2"/>
<path d="M117.691 33.2119C117.663 32.978 117.619 32.7461 117.559 32.5174C117.374 32.6719 117.161 32.7943 116.93 32.8791C116.707 32.9613 116.47 33.0032 116.23 33.0025C116.103 33.0056 115.976 32.9816 115.86 32.9322C115.744 32.8828 115.641 32.8094 115.56 32.7174C115.383 32.5103 115.289 32.251 115.297 31.9855C115.286 31.5625 115.406 31.1464 115.642 30.7864C115.801 30.4936 116.113 30.2987 116.463 30.2732C116.786 30.274 117.095 30.3932 117.326 30.6051C117.604 30.8715 117.806 31.1991 117.914 31.5566C118.068 31.9762 118.143 32.4162 118.137 32.8604C118.097 33.1734 117.986 33.4747 117.812 33.7447C117.421 33.9771 116.988 34.1414 116.534 34.2298C115.927 34.3452 115.307 34.3963 114.687 34.3821C114.627 34.3821 114.597 34.3821 114.597 34.3055V33.7923C114.597 33.7923 114.597 33.7157 114.687 33.7157C115.261 33.7225 115.835 33.6842 116.402 33.6017C116.847 33.521 117.28 33.3902 117.692 33.2119H117.691ZM116.321 31.0247C116.227 31.0241 116.134 31.0455 116.05 31.087C115.967 31.1284 115.896 31.1886 115.844 31.2621C115.72 31.423 115.653 31.6153 115.652 31.8136C115.643 31.9685 115.715 32.1174 115.844 32.2136C116.03 32.3089 116.242 32.3523 116.452 32.337C116.805 32.3345 117.151 32.2604 117.467 32.1183C117.37 31.8177 117.208 31.5393 116.991 31.3004C116.906 31.2127 116.803 31.1428 116.687 31.0953C116.572 31.0478 116.447 31.0237 116.321 31.0247ZM117.122 29.1217C116.944 29.3566 116.74 29.5728 116.514 29.7685C116.278 29.592 116.054 29.4015 115.844 29.1983C116.169 28.8936 116.382 28.6842 116.504 28.5515C116.695 28.7523 116.902 28.9396 117.122 29.1132V29.1217ZM120.664 33.754V34.2681C120.664 34.2681 120.664 34.3345 120.582 34.3345C120.265 34.346 119.949 34.2769 119.67 34.1345C119.557 34.0797 119.46 34 119.387 33.9021C119.315 33.8042 119.269 33.6911 119.253 33.5728C119.152 32.8221 119.051 31.6715 118.929 30.0919L118.838 28.9225C119.036 28.7438 119.25 28.5821 119.477 28.4374C119.477 29.3311 119.547 30.5966 119.578 32.2417V33.4502C119.89 33.6077 120.239 33.6859 120.593 33.6783C120.593 33.6783 120.664 33.7064 120.664 33.7549V33.754Z" fill="white" stroke="white" stroke-width="0.2"/>
<path d="M120.622 34.3532C120.622 34.3532 120.551 34.3532 120.551 34.2868V33.754C120.551 33.7064 120.551 33.6877 120.622 33.6877C121.066 33.6894 121.511 33.6604 121.951 33.6026C122.298 33.5634 122.64 33.4834 122.966 33.3643C122.895 33.126 122.783 32.8026 122.621 32.4128C122.54 32.2264 122.482 32.0319 122.448 31.8332C122.441 31.6823 122.491 31.5339 122.59 31.4145C122.716 31.2732 122.867 31.154 123.037 31.0621C123.037 31.2332 123.097 31.4051 123.138 31.5762L123.26 32.08C123.26 32.2417 123.331 32.394 123.351 32.5464C123.365 32.6885 123.365 32.8315 123.351 32.9745C123.313 33.2911 123.202 33.5957 123.027 33.8681C122.712 34.0396 122.369 34.1588 122.012 34.2204C121.555 34.3136 121.089 34.3582 120.622 34.3532H120.622ZM122.174 35.4664C122.015 35.69 121.828 35.8944 121.616 36.0749C121.397 35.9075 121.19 35.7264 120.997 35.5328C121.16 35.3906 121.362 35.1906 121.606 34.943L122.174 35.4664ZM123.595 35.343C123.431 35.5626 123.241 35.7634 123.027 35.9421C122.803 35.7831 122.596 35.6047 122.407 35.4094C122.55 35.2817 122.752 35.0826 123.016 34.8102C123.067 34.8672 123.261 35.0485 123.606 35.343H123.595ZM124.762 36.1702C124.546 36.1527 124.336 36.0979 124.142 36.0085C123.926 35.921 123.722 35.8092 123.534 35.6757L123.656 35.3804C123.946 35.4426 124.241 35.4774 124.538 35.4851C124.978 35.4953 125.406 35.3566 125.746 35.0953C126.111 34.7855 126.378 34.3872 126.517 33.9447C126.433 33.7561 126.338 33.5717 126.233 33.3923C126.055 33.1155 125.892 32.83 125.746 32.537C125.665 32.3656 125.617 32.182 125.604 31.9949C125.598 31.9286 125.608 31.8618 125.632 31.7993C125.657 31.7369 125.695 31.6801 125.746 31.6332C125.865 31.5311 125.998 31.4451 126.142 31.3762C126.142 31.5379 126.253 31.7183 126.335 31.9089C126.416 32.0987 126.497 32.3089 126.568 32.5081C126.639 32.7081 126.72 32.9166 126.781 33.1166C126.835 33.2962 126.862 33.4826 126.862 33.6689C126.867 34.1039 126.773 34.5347 126.588 34.9336C126.434 35.3106 126.171 35.64 125.827 35.8851C125.513 36.0834 125.14 36.183 124.762 36.1702ZM128.435 34.3532C128.143 34.3695 127.851 34.3208 127.582 34.2111C127.497 34.1765 127.423 34.1197 127.371 34.0473C127.319 33.9748 127.29 33.8899 127.288 33.8026C127.281 33.632 127.342 33.465 127.461 33.3353C127.617 33.4553 127.797 33.5464 127.988 33.6017C128.233 33.6647 128.486 33.6936 128.739 33.6868C129.169 33.6863 129.596 33.6258 130.007 33.5072C129.907 33.2268 129.778 32.956 129.622 32.6987L129.297 32.1464C129.218 32.0237 129.153 31.8929 129.105 31.7566C129.065 31.6529 129.044 31.5435 129.044 31.4332C129.041 31.2972 129.089 31.1646 129.18 31.0586C129.271 30.9525 129.398 30.8797 129.541 30.8528C129.631 31.0911 129.734 31.3191 129.835 31.5379L130.14 32.1464C130.231 32.337 130.302 32.5081 130.363 32.6698C130.419 32.8128 130.45 32.9643 130.454 33.1166C130.449 33.2443 130.421 33.3694 130.372 33.4877C130.305 33.6673 130.224 33.8422 130.13 34.0111C129.603 34.2536 129.021 34.3711 128.435 34.3532ZM126.395 12.914C126.162 12.8969 125.935 12.8385 125.726 12.7421C125.492 12.6453 125.271 12.5242 125.066 12.3813L125.208 12.0664C125.521 12.1302 125.841 12.1651 126.162 12.1719C126.633 12.1782 127.093 12.0301 127.461 11.7532C127.857 11.4187 128.145 10.9872 128.293 10.5072C128.198 10.3045 128.097 10.1047 127.988 9.90808C127.792 9.60143 127.616 9.28366 127.462 8.95659C127.372 8.7707 127.32 8.57066 127.308 8.36681C127.303 8.22321 127.358 8.08336 127.461 7.97702C127.591 7.86553 127.738 7.77276 127.896 7.70128C127.951 7.89872 128.019 8.09276 128.1 8.2817C128.182 8.49021 128.272 8.70979 128.354 8.93702C128.44 9.14979 128.515 9.36511 128.577 9.58383C128.635 9.77957 128.665 9.98128 128.668 10.1838C128.676 10.655 128.575 11.1222 128.374 11.554C128.193 11.9328 127.911 12.2604 127.552 12.5047C127.226 12.7566 126.819 12.9004 126.396 12.9132L126.395 12.914ZM127.907 6.4834C127.713 6.73253 127.496 6.96494 127.258 7.17787C126.998 6.9903 126.753 6.7837 126.527 6.56C126.872 6.23659 127.106 5.9983 127.237 5.86553C127.451 6.08425 127.664 6.28425 127.907 6.4834ZM130.505 7.80596V8.40511C130.505 9.01362 130.505 9.85106 130.434 10.897L129.967 10.9736C129.927 8.74723 129.835 6.90213 129.693 5.43745V5.31404C129.682 5.14327 129.736 4.97441 129.846 4.83745C129.982 4.706 130.159 4.6194 130.352 4.59064V4.70468L130.708 5.73191L130.434 5.95064C130.485 6.68255 130.505 7.27319 130.505 7.80596Z" fill="white" stroke="white" stroke-width="0.2"/>
<defs>
<linearGradient id="paint0_linear_2164_3252" x1="32.1435" y1="9.26109" x2="22.06" y2="20.018" gradientUnits="userSpaceOnUse">
<stop stop-color="#00A0FF"/>
<stop offset="0.01" stop-color="#00A1FF"/>
<stop offset="0.26" stop-color="#00BEFF"/>
<stop offset="0.51" stop-color="#00D2FF"/>
<stop offset="0.76" stop-color="#00DFFF"/>
<stop offset="1" stop-color="#00E3FF"/>
</linearGradient>
<linearGradient id="paint1_linear_2164_3252" x1="48.3471" y1="20" x2="23.8003" y2="20" gradientUnits="userSpaceOnUse">
<stop stop-color="#FFE000"/>
<stop offset="0.41" stop-color="#FFBD00"/>
<stop offset="0.78" stop-color="#FFA500"/>
<stop offset="1" stop-color="#FF9C00"/>
</linearGradient>
<linearGradient id="paint2_linear_2164_3252" x1="39.2153" y1="23.7795" x2="21.9796" y2="42.1578" gradientUnits="userSpaceOnUse">
<stop stop-color="#FF3A44"/>
<stop offset="1" stop-color="#C31162"/>
</linearGradient>
<linearGradient id="paint3_linear_2164_3252" x1="21.426" y1="6.30304" x2="29.1174" y2="14.5084" gradientUnits="userSpaceOnUse">
<stop stop-color="#32A071"/>
<stop offset="0.07" stop-color="#2DA771"/>
<stop offset="0.48" stop-color="#15CF74"/>
<stop offset="0.8" stop-color="#06E775"/>
<stop offset="1" stop-color="#00F076"/>
</linearGradient>
</defs>
</svg>
