<svg width="148" height="40" viewBox="0 0 148 40" fill="none" xmlns="http://www.w3.org/2000/svg">
<rect width="148" height="40" rx="4.5" fill="#0A0B09"/>
<path d="M56.4691 22.7909C56.4509 23.2091 56.3736 23.5848 56.2373 23.9182C56.1009 24.2545 55.913 24.5394 55.6736 24.7727C55.4342 25.0091 55.1448 25.1909 54.8054 25.3182C54.466 25.4455 54.0827 25.5091 53.6554 25.5091H53.0918V24.3773H53.6554C53.9463 24.3773 54.1979 24.347 54.41 24.2864C54.6221 24.2258 54.7963 24.1288 54.9327 23.9955C55.0691 23.8621 55.1706 23.6879 55.2373 23.4727C55.3039 23.2606 55.3373 23.0015 55.3373 22.6955V19.9273H56.4691V22.7909ZM55.0327 17.9591L55.8509 17.1318L56.6873 17.9682L55.86 18.7955L55.0327 17.9591ZM57.998 24.3773C58.2405 24.3773 58.4556 24.3682 58.6435 24.35C58.8344 24.3348 59.0026 24.3106 59.148 24.2773C59.2965 24.247 59.4253 24.2061 59.5344 24.1545C59.6465 24.1061 59.7435 24.047 59.8253 23.9773C59.9526 23.8742 60.048 23.7545 60.1117 23.6182C60.1783 23.4818 60.2177 23.2985 60.2299 23.0682H59.5299C59.3783 23.0682 59.2238 23.0561 59.0662 23.0318C58.9087 23.0076 58.7571 22.9667 58.6117 22.9091C58.4662 22.8485 58.3283 22.7712 58.198 22.6773C58.0708 22.5833 57.9587 22.4682 57.8617 22.3318C57.7677 22.1924 57.692 22.0288 57.6344 21.8409C57.5799 21.653 57.5526 21.4379 57.5526 21.1955C57.5526 20.9864 57.5708 20.8015 57.6071 20.6409C57.6435 20.4773 57.689 20.3333 57.7435 20.2091C57.8011 20.0848 57.8647 19.9773 57.9344 19.8864C58.0041 19.7924 58.0708 19.7106 58.1344 19.6409C58.3162 19.4591 58.5223 19.3197 58.7526 19.2227C58.9829 19.1227 59.2314 19.0727 59.498 19.0727C59.8283 19.0727 60.1102 19.1303 60.3435 19.2455C60.5799 19.3576 60.7723 19.5136 60.9208 19.7136C61.0723 19.9136 61.1829 20.1515 61.2526 20.4273C61.3223 20.7 61.3571 20.997 61.3571 21.3182V22.9318C61.3571 23.3833 61.289 23.7621 61.1526 24.0682C61.0162 24.3773 60.8087 24.6424 60.5299 24.8636C60.3905 24.9727 60.239 25.0667 60.0753 25.1455C59.9117 25.2273 59.7283 25.2955 59.5253 25.35C59.3223 25.4045 59.095 25.4439 58.8435 25.4682C58.595 25.4955 58.3132 25.5091 57.998 25.5091V24.3773ZM59.498 20.2045C59.2405 20.2045 59.0359 20.2848 58.8844 20.4455C58.7329 20.6061 58.6571 20.8561 58.6571 21.1955C58.6571 21.3288 58.6829 21.4424 58.7344 21.5364C58.789 21.6303 58.8571 21.7076 58.939 21.7682C59.0238 21.8258 59.1177 21.8682 59.2208 21.8955C59.3238 21.9227 59.4268 21.9364 59.5299 21.9364H60.2299V21.3182C60.2299 21.1455 60.2162 20.9985 60.189 20.8773C60.1617 20.753 60.1253 20.65 60.0799 20.5682C60.0374 20.4864 59.9874 20.4212 59.9299 20.3727C59.8753 20.3242 59.8208 20.2879 59.7662 20.2636C59.7147 20.2394 59.6647 20.2242 59.6162 20.2182C59.5677 20.2091 59.5283 20.2045 59.498 20.2045ZM67.3282 23.0682H66.96C66.5569 23.0682 66.1721 22.8909 65.8054 22.5364C65.7054 22.6545 65.5857 22.753 65.4463 22.8318C65.31 22.9076 65.163 22.9682 65.0054 23.0136C64.8479 23.0591 64.6873 23.0909 64.5236 23.1091C64.363 23.1273 64.2085 23.1364 64.06 23.1364C63.9448 23.1364 63.8282 23.1288 63.71 23.1136C63.5918 23.1015 63.4569 23.0788 63.3054 23.0455C63.1569 23.0152 62.9857 22.9742 62.7918 22.9227C62.5979 22.8682 62.366 22.8 62.0963 22.7182L62.4236 21.6318C62.6085 21.7045 62.7994 21.7697 62.9963 21.8273C63.1933 21.8818 63.3857 21.9273 63.5736 21.9636C63.7615 21.997 63.9418 22.0182 64.1145 22.0273C64.1842 22.0333 64.2509 22.0364 64.3145 22.0364C64.4085 22.0364 64.51 22.0288 64.6191 22.0136C64.7282 21.9985 64.8297 21.9667 64.9236 21.9182C65.0206 21.8667 65.0857 21.7985 65.1191 21.7136C65.1342 21.6773 65.1418 21.6439 65.1418 21.6136C65.1418 21.5864 65.1327 21.553 65.1145 21.5136C65.0994 21.4742 65.0736 21.4273 65.0373 21.3727C65.0009 21.3152 64.9539 21.2409 64.8963 21.15L63.2827 18.8818L64.2373 18.2682L65.86 20.7273C65.9479 20.8606 66.0403 20.9985 66.1373 21.1409C66.2342 21.2833 66.3312 21.4136 66.4282 21.5318C66.5251 21.647 66.6191 21.7424 66.71 21.8182C66.8009 21.8939 66.8842 21.9318 66.96 21.9318H67.3282V23.0682ZM70.8733 21.9364V23.0682H70.587C70.3294 23.0682 70.0945 23.0333 69.8824 22.9636C69.6703 22.8939 69.4915 22.7909 69.3461 22.6545C69.1764 22.797 68.9748 22.9015 68.7415 22.9682C68.5112 23.0348 68.2476 23.0682 67.9506 23.0682H67.1461V21.9364H67.9506C68.1355 21.9364 68.2824 21.9197 68.3915 21.8864C68.5036 21.85 68.587 21.8061 68.6415 21.7545C68.6991 21.703 68.7355 21.6455 68.7506 21.5818C68.7688 21.5182 68.7779 21.4561 68.7779 21.3955V19.9227H69.9051V21.3636C69.9051 21.5 69.9355 21.6076 69.9961 21.6864C70.0567 21.7621 70.1248 21.8197 70.2006 21.8591C70.2794 21.8955 70.3567 21.9182 70.4324 21.9273C70.5082 21.9333 70.5597 21.9364 70.587 21.9364H70.8733ZM68.2551 17.8318L69.0733 17.0045L69.9097 17.8409L69.0824 18.6682L68.2551 17.8318ZM74.0735 19.25C74.0795 19.2712 74.0917 19.3212 74.1098 19.4C74.131 19.4788 74.1538 19.5758 74.178 19.6909C74.2023 19.803 74.2265 19.9288 74.2507 20.0682C74.278 20.2076 74.3023 20.3485 74.3235 20.4909C74.3477 20.6303 74.3659 20.7667 74.378 20.9C74.3932 21.0333 74.4007 21.15 74.4007 21.25C74.4007 21.5621 74.3492 21.8333 74.2462 22.0636C74.1432 22.2909 74.0083 22.4788 73.8417 22.6273C73.675 22.7758 73.4871 22.8864 73.278 22.9591C73.072 23.0318 72.8644 23.0682 72.6553 23.0682H70.6962V21.9364H72.6871C72.7235 21.9364 72.775 21.9318 72.8417 21.9227C72.9114 21.9106 72.9795 21.8818 73.0462 21.8364C73.1159 21.7909 73.1765 21.7227 73.228 21.6318C73.2795 21.5379 73.3053 21.4106 73.3053 21.25C73.3053 21.1833 73.2992 21.103 73.2871 21.0091C73.278 20.9121 73.2644 20.8091 73.2462 20.7C73.228 20.5909 73.2068 20.4803 73.1826 20.3682C73.1614 20.253 73.1401 20.1455 73.1189 20.0455C73.0977 19.9424 73.0765 19.85 73.0553 19.7682C73.0341 19.6833 73.0174 19.6182 73.0053 19.5727L74.0735 19.25ZM73.5462 25.5409L72.7826 24.7682L73.5371 23.9864L74.3189 24.7682L73.5462 25.5409ZM71.6417 25.5455L70.878 24.7727L71.628 23.9909L72.4098 24.7727L71.6417 25.5455ZM75.957 24.3773C76.1995 24.3773 76.4146 24.3682 76.6025 24.35C76.7934 24.3348 76.9616 24.3106 77.107 24.2773C77.2555 24.247 77.3843 24.2061 77.4934 24.1545C77.6055 24.1061 77.7025 24.047 77.7843 23.9773C77.9116 23.8742 78.007 23.7545 78.0707 23.6182C78.1373 23.4818 78.1767 23.2985 78.1888 23.0682H77.4888C77.3373 23.0682 77.1828 23.0561 77.0252 23.0318C76.8676 23.0076 76.7161 22.9667 76.5707 22.9091C76.4252 22.8485 76.2873 22.7712 76.157 22.6773C76.0298 22.5833 75.9176 22.4682 75.8207 22.3318C75.7267 22.1924 75.651 22.0288 75.5934 21.8409C75.5388 21.653 75.5116 21.4379 75.5116 21.1955C75.5116 20.9864 75.5298 20.8015 75.5661 20.6409C75.6025 20.4773 75.6479 20.3333 75.7025 20.2091C75.7601 20.0848 75.8237 19.9773 75.8934 19.8864C75.9631 19.7924 76.0298 19.7106 76.0934 19.6409C76.2752 19.4591 76.4813 19.3197 76.7116 19.2227C76.9419 19.1227 77.1904 19.0727 77.457 19.0727C77.7873 19.0727 78.0692 19.1303 78.3025 19.2455C78.5388 19.3576 78.7313 19.5136 78.8798 19.7136C79.0313 19.9136 79.1419 20.1515 79.2116 20.4273C79.2813 20.7 79.3161 20.997 79.3161 21.3182V22.9318C79.3161 23.3833 79.2479 23.7621 79.1116 24.0682C78.9752 24.3773 78.7676 24.6424 78.4888 24.8636C78.3495 24.9727 78.1979 25.0667 78.0343 25.1455C77.8707 25.2273 77.6873 25.2955 77.4843 25.35C77.2813 25.4045 77.054 25.4439 76.8025 25.4682C76.554 25.4955 76.2722 25.5091 75.957 25.5091V24.3773ZM77.457 20.2045C77.1995 20.2045 76.9949 20.2848 76.8434 20.4455C76.6919 20.6061 76.6161 20.8561 76.6161 21.1955C76.6161 21.3288 76.6419 21.4424 76.6934 21.5364C76.7479 21.6303 76.8161 21.7076 76.8979 21.7682C76.9828 21.8258 77.0767 21.8682 77.1798 21.8955C77.2828 21.9227 77.3858 21.9364 77.4888 21.9364H78.1888V21.3182C78.1888 21.1455 78.1752 20.9985 78.1479 20.8773C78.1207 20.753 78.0843 20.65 78.0388 20.5682C77.9964 20.4864 77.9464 20.4212 77.8888 20.3727C77.8343 20.3242 77.7798 20.2879 77.7252 20.2636C77.6737 20.2394 77.6237 20.2242 77.5752 20.2182C77.5267 20.2091 77.4873 20.2045 77.457 20.2045ZM88.7739 23.0682H88.6467C88.4103 23.0682 88.183 23.0455 87.9648 23C87.7467 22.9576 87.5451 22.8924 87.3603 22.8045C87.1754 22.7136 87.0103 22.5985 86.8648 22.4591C86.7224 22.3197 86.6058 22.1545 86.5148 21.9636C86.4421 22.0758 86.3482 22.1758 86.233 22.2636C86.1209 22.3485 85.9982 22.4197 85.8648 22.4773C85.7315 22.5348 85.5936 22.5788 85.4512 22.6091C85.3088 22.6364 85.1724 22.65 85.0421 22.65C84.7997 22.65 84.5694 22.6076 84.3512 22.5227C84.1361 22.4379 83.9467 22.3182 83.783 22.1636C83.6194 22.0061 83.4891 21.8152 83.3921 21.5909C83.2982 21.3667 83.2512 21.1136 83.2512 20.8318C83.2512 20.5045 83.3133 20.2167 83.4376 19.9682C83.5618 19.7197 83.727 19.503 83.933 19.3182C84.1391 19.1303 84.3754 18.9712 84.6421 18.8409C84.9118 18.7076 85.1906 18.5924 85.4785 18.4955L85.3694 18.0591L86.4785 17.8L87.3058 21.0182C87.3542 21.2152 87.433 21.3742 87.5421 21.4955C87.6512 21.6136 87.7694 21.7061 87.8967 21.7727C88.027 21.8364 88.1588 21.8803 88.2921 21.9045C88.4285 21.9258 88.5467 21.9364 88.6467 21.9364H88.7739V23.0682ZM85.9739 20.8091C85.9891 20.7455 85.9967 20.6803 85.9967 20.6136C85.9967 20.5924 85.9936 20.5561 85.9876 20.5045C85.9845 20.45 85.9724 20.3742 85.9512 20.2773C85.93 20.1803 85.9012 20.0758 85.8648 19.9636C85.8315 19.8515 85.7951 19.7258 85.7558 19.5864C85.2709 19.7409 84.9027 19.9167 84.6512 20.1136C84.4027 20.3076 84.2785 20.5485 84.2785 20.8364C84.2785 20.9485 84.3027 21.0485 84.3512 21.1364C84.4027 21.2242 84.4679 21.297 84.5467 21.3545C84.6285 21.4121 84.7194 21.453 84.8194 21.4773C84.883 21.4955 84.9467 21.5045 85.0103 21.5045C85.0436 21.5045 85.0785 21.5015 85.1148 21.4955C85.3421 21.4621 85.5315 21.3955 85.683 21.2955C85.8345 21.1924 85.9315 21.0303 85.9739 20.8091ZM94.842 21.2591C94.8269 21.2682 94.7784 21.3015 94.6966 21.3591C94.6148 21.4136 94.5042 21.4848 94.3648 21.5727C94.3951 21.6636 94.442 21.7348 94.5057 21.7864C94.5693 21.8348 94.6345 21.8712 94.7011 21.8955C94.7678 21.9167 94.8299 21.9288 94.8875 21.9318C94.9481 21.9348 94.9905 21.9364 95.0148 21.9364H95.8466V23.0682H95.0148C94.6542 23.0652 94.3299 22.9864 94.042 22.8318C93.7572 22.6742 93.5345 22.4394 93.3739 22.1273C93.1405 22.2424 92.889 22.3576 92.6193 22.4727C92.3496 22.5848 92.0678 22.6848 91.7739 22.7727C91.4799 22.8606 91.1784 22.9318 90.8693 22.9864C90.5602 23.0409 90.2511 23.0682 89.942 23.0682H88.5875V21.9364H89.942C90.239 21.9364 90.5557 21.9061 90.892 21.8455C91.2284 21.7848 91.5602 21.7076 91.8875 21.6136C92.2148 21.5167 92.5254 21.4091 92.8193 21.2909C93.1163 21.1727 93.3739 21.0561 93.592 20.9409C93.4557 20.8985 93.3057 20.853 93.142 20.8045C92.9784 20.753 92.8117 20.703 92.642 20.6545C92.4723 20.603 92.3042 20.5545 92.1375 20.5091C91.9708 20.4606 91.8148 20.4182 91.6693 20.3818C91.5239 20.3455 91.3936 20.3167 91.2784 20.2955C91.1633 20.2742 91.0723 20.2636 91.0057 20.2636C90.936 20.2636 90.8739 20.2727 90.8193 20.2909C90.7678 20.3061 90.7208 20.3333 90.6784 20.3727C90.636 20.4091 90.5966 20.4576 90.5602 20.5182C90.5239 20.5788 90.486 20.6515 90.4466 20.7364L89.4057 20.4227C89.4633 20.2409 89.533 20.0712 89.6148 19.9136C89.6996 19.753 89.8011 19.6136 89.9193 19.4955C90.0405 19.3773 90.1799 19.2848 90.3375 19.2182C90.4951 19.1485 90.6754 19.1136 90.8784 19.1136C90.9572 19.1136 91.0693 19.1303 91.2148 19.1636C91.3602 19.197 91.5254 19.2409 91.7102 19.2955C91.8951 19.35 92.092 19.4121 92.3011 19.4818C92.5133 19.5515 92.7254 19.6242 92.9375 19.7C93.1496 19.7758 93.3557 19.85 93.5557 19.9227C93.7557 19.9955 93.936 20.0621 94.0966 20.1227C94.2572 20.1803 94.392 20.2288 94.5011 20.2682C94.6102 20.3076 94.6799 20.3318 94.7102 20.3409L94.842 21.2591ZM89.8739 17.2682L90.692 16.4409L91.5284 17.2773L90.7011 18.1045L89.8739 17.2682ZM95.6571 21.9364H96.2435C96.4223 21.9364 96.5662 21.9212 96.6753 21.8909C96.7874 21.8606 96.8738 21.8167 96.9344 21.7591C96.998 21.6985 97.0405 21.6258 97.0617 21.5409C97.0829 21.4561 97.0935 21.3591 97.0935 21.25V19.9273H98.2253V21.2273C98.2253 21.4727 98.2844 21.6515 98.4026 21.7636C98.5208 21.8758 98.7071 21.9333 98.9617 21.9364C99.0071 21.9333 99.0617 21.9242 99.1253 21.9091C99.192 21.8939 99.2556 21.8636 99.3162 21.8182C99.3799 21.7697 99.4329 21.7015 99.4753 21.6136C99.5208 21.5227 99.5435 21.4015 99.5435 21.25V19.9273H100.671V21.2273C100.671 21.4758 100.73 21.6561 100.848 21.7682C100.966 21.8803 101.159 21.9364 101.425 21.9364C101.498 21.9364 101.569 21.9258 101.639 21.9045C101.712 21.8803 101.777 21.8424 101.834 21.7909C101.892 21.7364 101.939 21.6667 101.975 21.5818C102.012 21.497 102.033 21.3924 102.039 21.2682V19.9273H103.171V21.2727C103.177 21.5061 103.248 21.6758 103.384 21.7818C103.521 21.8848 103.73 21.9364 104.012 21.9364H104.457V23.0682H104.012C103.7 23.0682 103.428 23.0348 103.198 22.9682C102.968 22.8985 102.769 22.7864 102.603 22.6318C102.448 22.7742 102.266 22.8833 102.057 22.9591C101.851 23.0318 101.64 23.0682 101.425 23.0682C101.14 23.0682 100.89 23.0333 100.675 22.9636C100.463 22.8939 100.274 22.7818 100.107 22.6273C99.9496 22.7667 99.7723 22.8742 99.5753 22.95C99.3814 23.0258 99.1844 23.0652 98.9844 23.0682H98.9526C98.6799 23.0682 98.4374 23.0318 98.2253 22.9591C98.0132 22.8833 97.8283 22.7788 97.6708 22.6455C97.3162 22.9273 96.8405 23.0682 96.2435 23.0682H95.6571V21.9364ZM106.907 19.25C106.914 19.2712 106.926 19.3212 106.944 19.4C106.965 19.4788 106.988 19.5758 107.012 19.6909C107.036 19.803 107.06 19.9288 107.085 20.0682C107.112 20.2076 107.136 20.3485 107.157 20.4909C107.182 20.6303 107.2 20.7667 107.212 20.9C107.227 21.0333 107.235 21.15 107.235 21.25C107.235 21.5621 107.183 21.8333 107.08 22.0636C106.977 22.2909 106.842 22.4788 106.676 22.6273C106.509 22.7758 106.321 22.8864 106.112 22.9591C105.906 23.0318 105.698 23.0682 105.489 23.0682H104.28V21.9364H105.521C105.557 21.9364 105.609 21.9318 105.676 21.9227C105.745 21.9106 105.814 21.8818 105.88 21.8364C105.95 21.7909 106.01 21.7227 106.062 21.6318C106.114 21.5379 106.139 21.4106 106.139 21.25C106.139 21.1833 106.133 21.103 106.121 21.0091C106.112 20.9121 106.098 20.8091 106.08 20.7C106.062 20.5909 106.041 20.4803 106.017 20.3682C105.995 20.253 105.974 20.1455 105.953 20.0455C105.932 19.9424 105.91 19.85 105.889 19.7682C105.868 19.6833 105.851 19.6182 105.839 19.5727L106.907 19.25ZM105.203 17.4227L106.021 16.5955L106.857 17.4318L106.03 18.2591L105.203 17.4227ZM112.972 23.0727C112.857 23.0727 112.743 23.0667 112.631 23.0545C112.519 23.0424 112.405 23.0258 112.29 23.0045C112.175 22.9833 112.057 22.9576 111.935 22.9273C111.814 22.8939 111.687 22.8576 111.554 22.8182L111.013 22.6545L111.34 21.5636C111.604 21.6545 111.876 21.7348 112.158 21.8045C112.443 21.8742 112.711 21.9197 112.963 21.9409C113.044 21.947 113.123 21.95 113.199 21.95C113.351 21.95 113.502 21.9333 113.654 21.9C113.808 21.8667 113.917 21.7833 113.981 21.65C113.993 21.6258 113.999 21.597 113.999 21.5636C113.999 21.5424 113.993 21.5091 113.981 21.4636C113.969 21.4182 113.938 21.3606 113.89 21.2909L112.194 18.8182L113.149 18.2L113.458 18.6773C113.458 18.6803 113.463 18.6894 113.472 18.7045C113.484 18.7197 113.505 18.7515 113.535 18.8C113.569 18.8485 113.614 18.9182 113.672 19.0091C113.732 19.097 113.811 19.2136 113.908 19.3591C114.005 19.5045 114.123 19.6848 114.263 19.9C114.405 20.1121 114.575 20.3667 114.772 20.6636C114.926 20.897 115.022 21.1379 115.058 21.3864C115.067 21.45 115.072 21.5121 115.072 21.5727C115.072 21.7545 115.035 21.9288 114.963 22.0955C114.911 22.2167 114.841 22.3288 114.754 22.4318C114.669 22.5318 114.569 22.6212 114.454 22.7C114.238 22.8485 113.979 22.95 113.676 23.0045C113.422 23.05 113.187 23.0727 112.972 23.0727ZM116.367 24.3773C116.61 24.3773 116.825 24.3682 117.013 24.35C117.204 24.3348 117.372 24.3106 117.517 24.2773C117.666 24.247 117.794 24.2061 117.904 24.1545C118.016 24.1061 118.113 24.047 118.194 23.9773C118.322 23.8742 118.417 23.7545 118.481 23.6182C118.547 23.4818 118.587 23.2985 118.599 23.0682H117.899C117.747 23.0682 117.593 23.0561 117.435 23.0318C117.278 23.0076 117.126 22.9667 116.981 22.9091C116.835 22.8485 116.697 22.7712 116.567 22.6773C116.44 22.5833 116.328 22.4682 116.231 22.3318C116.137 22.1924 116.061 22.0288 116.004 21.8409C115.949 21.653 115.922 21.4379 115.922 21.1955C115.922 20.9864 115.94 20.8015 115.976 20.6409C116.013 20.4773 116.058 20.3333 116.113 20.2091C116.17 20.0848 116.234 19.9773 116.304 19.8864C116.373 19.7924 116.44 19.7106 116.504 19.6409C116.685 19.4591 116.891 19.3197 117.122 19.2227C117.352 19.1227 117.601 19.0727 117.867 19.0727C118.197 19.0727 118.479 19.1303 118.713 19.2455C118.949 19.3576 119.141 19.5136 119.29 19.7136C119.441 19.9136 119.552 20.1515 119.622 20.4273C119.691 20.7 119.726 20.997 119.726 21.3182V21.9364H120.499V23.0682H119.722C119.71 23.4833 119.635 23.8333 119.499 24.1182C119.366 24.403 119.166 24.6515 118.899 24.8636C118.76 24.9727 118.608 25.0667 118.444 25.1455C118.281 25.2273 118.097 25.2955 117.894 25.35C117.691 25.4045 117.464 25.4439 117.213 25.4682C116.964 25.4955 116.682 25.5091 116.367 25.5091V24.3773ZM117.867 20.2045C117.61 20.2045 117.405 20.2848 117.254 20.4455C117.102 20.6061 117.026 20.8561 117.026 21.1955C117.026 21.3288 117.052 21.4424 117.104 21.5364C117.158 21.6303 117.226 21.7076 117.308 21.7682C117.393 21.8258 117.487 21.8682 117.59 21.8955C117.693 21.9227 117.796 21.9364 117.899 21.9364H118.599V21.3182C118.599 21.1455 118.585 20.9985 118.558 20.8773C118.531 20.753 118.494 20.65 118.449 20.5682C118.407 20.4864 118.357 20.4212 118.299 20.3727C118.244 20.3242 118.19 20.2879 118.135 20.2636C118.084 20.2394 118.034 20.2242 117.985 20.2182C117.937 20.2091 117.897 20.2045 117.867 20.2045ZM120.299 21.9364C120.59 21.9364 120.816 21.9121 120.976 21.8636C121.137 21.8121 121.255 21.7485 121.331 21.6727C121.41 21.597 121.457 21.5136 121.472 21.4227C121.49 21.3318 121.499 21.2455 121.499 21.1636V16.5136H122.626V21.1636C122.626 21.3636 122.685 21.5364 122.804 21.6818C122.925 21.8273 123.094 21.9121 123.313 21.9364H123.422V23.0682H123.308C123.157 23.0652 123.023 23.0545 122.908 23.0364C122.796 23.0182 122.693 22.9894 122.599 22.95C122.505 22.9076 122.414 22.853 122.326 22.7864C122.241 22.7197 122.152 22.6379 122.058 22.5409C121.979 22.6379 121.885 22.7212 121.776 22.7909C121.67 22.8576 121.544 22.9121 121.399 22.9545C121.257 22.9939 121.094 23.0227 120.913 23.0409C120.731 23.0591 120.526 23.0682 120.299 23.0682V21.9364ZM125.892 19.25C125.898 19.2712 125.91 19.3212 125.928 19.4C125.949 19.4788 125.972 19.5758 125.996 19.6909C126.021 19.803 126.045 19.9288 126.069 20.0682C126.096 20.2076 126.121 20.3485 126.142 20.4909C126.166 20.6303 126.184 20.7667 126.196 20.9C126.212 21.0333 126.219 21.15 126.219 21.25C126.219 21.5621 126.168 21.8333 126.065 22.0636C125.962 22.2909 125.827 22.4788 125.66 22.6273C125.493 22.7758 125.305 22.8864 125.096 22.9591C124.89 23.0318 124.683 23.0682 124.474 23.0682H123.265V21.9364H124.505C124.542 21.9364 124.593 21.9318 124.66 21.9227C124.73 21.9106 124.798 21.8818 124.865 21.8364C124.934 21.7909 124.995 21.7227 125.046 21.6318C125.098 21.5379 125.124 21.4106 125.124 21.25C125.124 21.1833 125.118 21.103 125.105 21.0091C125.096 20.9121 125.083 20.8091 125.065 20.7C125.046 20.5909 125.025 20.4803 125.001 20.3682C124.98 20.253 124.958 20.1455 124.937 20.0455C124.916 19.9424 124.895 19.85 124.874 19.7682C124.852 19.6833 124.836 19.6182 124.824 19.5727L125.892 19.25ZM124.187 17.4227L125.005 16.5955L125.842 17.4318L125.015 18.2591L124.187 17.4227ZM128.424 23.0682H127.292V16.5136H128.424V23.0682ZM131.605 23.0727C131.489 23.0727 131.376 23.0667 131.264 23.0545C131.152 23.0424 131.038 23.0258 130.923 23.0045C130.808 22.9833 130.689 22.9576 130.568 22.9273C130.447 22.8939 130.32 22.8576 130.186 22.8182L129.645 22.6545L129.973 21.5636C130.236 21.6545 130.509 21.7348 130.791 21.8045C131.076 21.8742 131.344 21.9197 131.595 21.9409C131.677 21.947 131.756 21.95 131.832 21.95C131.983 21.95 132.135 21.9333 132.286 21.9C132.441 21.8667 132.55 21.7833 132.614 21.65C132.626 21.6258 132.632 21.597 132.632 21.5636C132.632 21.5424 132.626 21.5091 132.614 21.4636C132.602 21.4182 132.571 21.3606 132.523 21.2909L130.827 18.8182L131.782 18.2L132.091 18.6773C132.091 18.6803 132.095 18.6894 132.105 18.7045C132.117 18.7197 132.138 18.7515 132.168 18.8C132.202 18.8485 132.247 18.9182 132.305 19.0091C132.365 19.097 132.444 19.2136 132.541 19.3591C132.638 19.5045 132.756 19.6848 132.895 19.9C133.038 20.1121 133.208 20.3667 133.405 20.6636C133.559 20.897 133.655 21.1379 133.691 21.3864C133.7 21.45 133.705 21.5121 133.705 21.5727C133.705 21.7545 133.668 21.9288 133.595 22.0955C133.544 22.2167 133.474 22.3288 133.386 22.4318C133.302 22.5318 133.202 22.6212 133.086 22.7C132.871 22.8485 132.612 22.95 132.309 23.0045C132.055 23.05 131.82 23.0727 131.605 23.0727Z" fill="white"/>
<g clip-path="url(#clip0_2304_960)">
<path d="M44.4416 34C43.3189 33.7594 42.1963 33.5188 41.0659 33.2782C37.5979 32.5564 34.1298 31.8346 30.6618 31.1128C30.4235 31.0647 30.3389 30.9685 30.3389 30.7038C30.3466 27.3996 30.3466 24.0954 30.3389 20.7912C30.3389 20.4945 30.4388 20.4303 30.7003 20.4303C32.4535 20.4624 34.2144 20.4784 35.9677 20.5105C37.6132 20.5346 39.2588 20.5747 40.9044 20.6067C42.0732 20.6308 43.242 20.6468 44.4032 20.6629C44.6108 20.6629 44.7184 20.719 44.7184 20.9676C44.7108 25.2823 44.7108 29.597 44.7108 33.9118C44.7108 33.9438 44.7031 33.9679 44.7031 34C44.6262 34 44.5339 34 44.4416 34Z" fill="white"/>
<path d="M44.7263 11.6565C44.7263 13.7417 44.7263 15.8269 44.7263 17.912C44.7263 18.313 44.7263 18.313 44.3264 18.3211C42.7347 18.3451 41.1429 18.3531 39.5511 18.3932C37.3981 18.4414 35.245 18.4734 33.0919 18.5135C32.2845 18.5296 31.4847 18.5376 30.6773 18.5617C30.4313 18.5697 30.3467 18.4895 30.3467 18.2248C30.3544 14.9046 30.3544 11.5763 30.3467 8.25608C30.3467 7.99142 30.462 7.91924 30.6696 7.87914C34.2146 7.14131 37.7595 6.40348 41.3121 5.67367C42.3425 5.45713 43.3729 5.24861 44.3956 5.04009C44.7032 4.97593 44.7186 4.99197 44.7186 5.32079C44.7263 7.42201 44.7263 9.53926 44.7263 11.6565Z" fill="white"/>
<path d="M28.3857 13.4851C28.3857 15.073 28.378 16.661 28.3934 18.2409C28.3934 18.5296 28.3011 18.6098 28.032 18.6098C26.4941 18.6178 24.9562 18.6178 23.4182 18.674C22.2033 18.7221 20.996 18.682 19.7811 18.7461C19.4965 18.7622 19.5042 18.5857 19.5042 18.3852C19.5042 16.1156 19.5042 13.854 19.5042 11.5843C19.5042 11.2235 19.5196 10.8626 19.4965 10.5097C19.4888 10.2691 19.5811 10.1728 19.7964 10.1327C21.5266 9.77987 23.2568 9.41897 24.9869 9.05807C26.0173 8.84154 27.0477 8.64104 28.0705 8.41648C28.3242 8.36034 28.3857 8.44054 28.3857 8.68916C28.378 10.2931 28.3857 11.8891 28.3857 13.4851Z" fill="white"/>
<path d="M28.3853 25.531C28.3853 27.1029 28.3853 28.6828 28.3853 30.2547C28.3853 30.6236 28.3776 30.6316 28.0393 30.5594C25.2941 29.99 22.5412 29.4206 19.796 28.8512C19.573 28.8111 19.4961 28.7068 19.4961 28.4743C19.5038 25.8437 19.5038 23.2132 19.4961 20.5747C19.4961 20.2859 19.6037 20.2218 19.8498 20.2298C21.3416 20.2699 22.8334 20.302 24.3252 20.326C25.5632 20.3501 26.8012 20.3742 28.0393 20.3822C28.293 20.3822 28.3853 20.4624 28.3853 20.7431C28.3776 22.339 28.3853 23.935 28.3853 25.531Z" fill="white"/>
</g>
<defs>
<clipPath id="clip0_2304_960">
<rect width="25.2296" height="29" fill="white" transform="translate(19.4961 5)"/>
</clipPath>
</defs>
</svg>
